<?xml version="1.0" encoding="utf-8"?>
<!-- Generator: Adobe Illustrator 16.0.0, SVG Export Plug-In . SVG Version: 6.00 Build 0)  -->
<!DOCTYPE svg PUBLIC "-//W3C//DTD SVG 1.1//EN" "http://www.w3.org/Graphics/SVG/1.1/DTD/svg11.dtd">
<svg version="1.1" id="logo_1_" xmlns="http://www.w3.org/2000/svg" xmlns:xlink="http://www.w3.org/1999/xlink" x="0px" y="0px"
	 width="214px" height="86px" viewBox="0 0 107 43" enable-background="new 0 0 107 43" xml:space="preserve">
<g id="Shape_1">
	<g>
		<path d="M27.417,16.235c-1.506,0-3.853,0.575-5.422,1.28c-0.307,0.138-0.501,0.258-0.501,0.502c0,0.141,0.071,0.307,0.151,0.451
			l1.057,2.263c0.109,0.255,0.283,0.312,0.427,0.312c0.155,0,0.283-0.074,0.424-0.164c1.529-0.977,2.65-1.516,3.538-1.516
			c1.173,0,1.97,0.777,2.462,1.95c0.458,1.091,0.635,2.599,0.635,4.341c0,0.221,0,0.511,0,0.511
			c-0.965-0.604-2.634-0.936-3.468-0.936c-4.486,0-6.906,4.263-6.906,8.819c0,4.911,2.827,8.517,6.225,8.517
			c1.893,0,3.606-1.111,4.753-2.512c0,0,0.611,1.457,0.689,1.63c0.081,0.174,0.165,0.239,0.396,0.239l1.814,0.003
			c0.199,0,0.351-0.151,0.351-0.402V27.405c0-3.467-0.175-6.114-1.091-7.918C31.807,17.224,29.762,16.235,27.417,16.235z
			 M30.191,37.981L30.191,37.981c-0.891,0.858-1.957,1.308-2.914,1.308c-0.958,0-1.699-0.441-2.293-1.261
			c-0.724-0.999-1.061-2.535-1.061-4.238c0-2.692,0.995-5.455,3.103-5.455c1.042,0,2.187,0.342,3.166,1.119V37.981z M47.015,16.553
			c-2.434,0-4.97,1.775-4.97,1.775v-1.142c0-0.249-0.1-0.351-0.35-0.351h-3.105c-0.25,0-0.401,0.15-0.401,0.351v24.336
			c0,0.25,0.1,0.404,0.351,0.404h3.156c0.198,0,0.35-0.152,0.35-0.404V20.691c0,0,1.463-0.928,3.243-0.928
			c1.692,0,3.028,0.84,3.028,2.564c0,1.201,0,19.194,0,19.194c0,0.25,0.15,0.404,0.402,0.404h3.104c0.25,0,0.351-0.202,0.351-0.404
			V21.236C52.172,18.182,50.293,16.553,47.015,16.553z M70.834,4.346h-3.104c-0.249,0-0.399,0.15-0.399,0.351v12.277
			c-1.193-0.458-2.279-0.699-3.155-0.699c-5.043,0-8.504,4.821-8.504,14.09c0,7.94,3.367,12.199,7.762,12.199
			c1.852,0,3.381-1.061,4.5-2.057l0.678,1.149c0.114,0.196,0.21,0.267,0.438,0.267l1.786,0.002c0.199,0,0.354-0.152,0.354-0.402
			V4.695C71.186,4.445,71.085,4.346,70.834,4.346z M67.33,38.488c-0.766,0.415-1.729,0.8-2.768,0.8c-3.32,0-4.785-3.937-4.785-9.746
			c0-5.106,1.494-10.164,4.548-10.164c1.032,0,2.025,0.34,3.005,1.116V38.488z M106.242,16.833h-2.766
			c-0.31,0-0.468,0.161-0.548,0.371c-0.176,0.46-1.345,3.54-1.824,4.817c-0.344,0.911-1.264,3.521-1.264,3.521h-0.105
			c-0.006-0.01-0.678-1.9-1.042-2.845c-0.297-0.768-1.84-4.828-2.032-5.328c-0.104-0.27-0.221-0.536-0.616-0.536h-3.034
			c-0.33,0-0.519,0.364-0.412,0.592c0.107,0.227,4.935,11.223,4.935,11.223s-5.184,12.312-5.335,12.587
			c-0.152,0.276,0.038,0.688,0.41,0.688h2.653c0.452,0,0.632-0.239,0.768-0.619c0.38-1.069,0.948-2.557,1.755-4.855
			c0.531-1.52,1.373-4.193,1.373-4.193h0.093c0,0,0.924,2.725,1.268,3.613c0.866,2.251,1.979,5.194,2.095,5.504
			c0.121,0.325,0.295,0.55,0.604,0.55h3.013c0.298,0,0.435-0.342,0.295-0.636c-0.336-0.706-3.194-7.654-5.18-12.223
			c0,0,5.153-11.371,5.253-11.652C106.698,17.13,106.668,16.833,106.242,16.833z M82.948,16.325c-5.171,0-7.723,6.764-7.723,14.124
			c0,7.706,3.641,12.023,8.318,12.023c2.059,0,4.105-0.81,5.449-1.555c0.204-0.117,0.241-0.277,0.193-0.476l-0.394-1.628
			c-0.048-0.198-0.146-0.299-0.398-0.299c-0.108,0-1.805,0.496-3.456,0.496c-3.828,0-5.586-3.404-5.586-7.926
			c0-0.596,0-1.101,0-1.101s1.903,0.265,3.047,0.265h7.227v-2.088C89.626,20.453,86.926,16.325,82.948,16.325z M82.7,27.115v0.002
			c-1.145,0-3.226,0.283-3.226,0.283s0.026-0.829,0.128-1.626c0.446-4.228,1.457-6.366,3.196-6.366c1.515,0,2.552,2.187,2.801,6.017
			c0.048,0.797,0.048,1.69,0.048,1.69H82.7z"/>
	</g>
</g>
<g id="Shape_1_1_">
	<g>
		<path fill="#FF0000" d="M22.48,0.056h-3.543c-0.313,0-0.509,0.153-0.554,0.377c-0.045,0.225-5.313,16.286-5.696,17.625
			c-0.271,0.948-1.158,4.291-1.369,5.095L9.484,18.15C9.04,16.773,4.772,4.854,4.648,4.376C4.579,4.116,4.458,3.79,4,3.79H0.542
			c-0.339,0-0.529,0.371-0.419,0.601C0.209,4.576,6.456,21.197,8.98,27.546v13.961c0,0.254,0.102,0.408,0.357,0.408h3.276
			c0.202,0,0.356-0.152,0.356-0.408V27.656c2.105-5.877,9.79-26.781,9.873-27.015C22.941,0.356,22.912,0.056,22.48,0.056z"/>
	</g>
</g>
</svg>
